Coordinates
version=1
nRows=24
nColumns=22
inDegrees=yes

Units are S.I. units (second, meters, Newtons, ...)
If the header above contains a line with 'inDegrees', this indicates whether rotational values are in degrees (yes) or radians (no).

endheader
time	pelvis_tilt	pelvis_list	pelvis_rotation	pelvis_tx	pelvis_ty	pelvis_tz	hip_flexion_r	hip_adduction_r	hip_rotation_r	knee_angle_r	ankle_angle_r	subtalar_angle_r	hip_flexion_l	hip_adduction_l	hip_rotation_l	knee_angle_l	ankle_angle_l	subtalar_angle_l	lumbar_extension	lumbar_bending	lumbar_rotation
      2.29000000	     -8.55421970	     -3.76994391	     -3.04134423	      0.09515819	      0.95180735	      0.23678864	      1.07145036	      5.59542403	     -0.53754674	    -32.54879163	     18.82443279	      6.26295638	     39.11626585	     -2.58292670	     -0.12279431	    -29.39989063	      4.76123516	      0.80578814	     -2.29104833	      5.27321081	      6.61251168
      2.30000000	     -8.56377983	     -3.38370349	     -2.97376188	      0.10566324	      0.95280582	      0.23519205	      1.59388668	      4.94471594	     -0.75656836	    -34.34936073	     17.30610563	      7.28219390	     38.72789241	     -2.05020761	     -0.19834440	    -29.87822688	      5.44106924	      0.20302566	     -2.11311042	      4.81167421	      6.45048705
      2.31000000	     -8.62235750	     -2.97871339	     -2.92862434	      0.11595335	      0.95376566	      0.23358549	      2.31869193	      4.24275633	     -1.04028809	    -36.34806990	     15.61850193	      7.94206931	     38.32063685	     -1.51137924	     -0.32873934	    -30.21381605	      6.12123073	     -0.28662934	     -1.89855004	      4.33542050	      6.33187121
      2.32000000	     -8.70280629	     -2.57481578	     -2.90927079	      0.12601565	      0.95474653	      0.23200525	      3.20246705	      3.52050853	     -1.32428920	    -38.50941142	     13.75457419	      8.34339341	     37.86972000	     -0.98934057	     -0.49513390	    -30.41156878	      6.77827632	     -0.67072594	     -1.68204242	      3.86510410	      6.25309080
      2.33000000	     -8.85398591	     -2.18723005	     -2.91240158	      0.13584887	      0.95560142	      0.23047640	      4.29027259	      2.80833061	     -1.56817375	    -40.82317606	     11.82794517	      8.60190908	     37.46325597	     -0.50762022	     -0.71726459	    -30.53698841	      7.52208421	     -1.16632653	     -1.40023809	      3.42337771	      6.15573401
      2.34000000	     -9.00753341	     -1.77483376	     -2.93679327	      0.14545211	      0.95648518	      0.22901259	      5.50729905	      2.05902296	     -1.77534344	    -43.26882590	      9.82610320	      8.56123915	     37.01007281	     -0.02061369	     -0.97311152	    -30.55023061	      8.19842169	     -1.52081479	     -1.13791509	      2.94990141	      6.07666912
      2.35000000	     -9.19224152	     -1.36355518	     -2.97434729	      0.15480833	      0.95732225	      0.22760778	      6.87266613	      1.31453568	     -1.92661514	    -45.81395482	      7.78637090	      8.17680151	     36.56420706	      0.45672506	     -1.21799395	    -30.48899854	      8.83585732	     -1.84986567	     -0.86214933	      2.48174914	      6.00158075
      2.36000000	     -9.36141196	     -0.91337125	     -3.02233790	      0.16397394	      0.95816134	      0.22626276	      8.32177105	      0.52800931	     -2.02496904	    -48.42349425	      5.81219275	      7.59678802	     36.08065361	      0.95713011	     -1.50494618	    -30.36213649	      9.44200885	     -2.07529054	     -0.62154712	      1.96822348	      5.90237204
      2.37000000	     -9.51750409	     -0.44172240	     -3.07468304	      0.17295630	      0.95898580	      0.22497066	      9.83971029	     -0.27428034	     -2.06907733	    -51.04663106	      3.94348397	      6.85669557	     35.57149997	      1.47417400	     -1.79652997	    -30.18408688	     10.00736560	     -2.25144787	     -0.41261898	      1.43117225	      5.78028382
      2.38000000	     -9.64884747	      0.04951517	     -3.12870966	      0.18178939	      0.95979489	      0.22373345	     11.39462694	     -1.08748491	     -2.06232640	    -53.63296575	      2.27426935	      6.05791897	     35.02935770	      2.00807222	     -2.09438452	    -29.96588146	     10.54846255	     -2.39282681	     -0.24631660	      0.87113465	      5.62339305
      2.39000000	     -9.74546579	      0.54731747	     -3.18056778	      0.19049773	      0.96061413	      0.22252880	     12.95780195	     -1.89380194	     -2.00762003	    -56.12724962	      0.86764306	      5.28007013	     34.44217894	      2.55564975	     -2.37492785	    -29.70684752	     11.05187290	     -2.51513530	     -0.13174946	      0.30830732	      5.43450037
      2.40000000	     -9.79989075	      1.02436778	     -3.21793641	      0.19910423	      0.96145441	      0.22135046	     14.49850430	     -2.66701690	     -1.93596636	    -58.47845102	     -0.20442647	      4.55367109	     33.81063909	      3.09813937	     -2.61748848	    -29.42751657	     11.52069779	     -2.63487021	     -0.07639908	     -0.23039039	      5.22927514
      2.41000000	     -9.79652107	      1.49463597	     -3.23574862	      0.20764534	      0.96233827	      0.22018119	     15.98748246	     -3.42499218	     -1.84756317	    -60.65776237	     -0.82351829	      4.10944733	     33.11887577	      3.64548619	     -2.86645766	    -29.13214760	     11.96611340	     -2.72770969	     -0.09594557	     -0.75879327	      4.97759468
      2.42000000	     -9.77905664	      1.89870316	     -3.24472553	      0.21609794	      0.96324673	      0.21906605	     17.45526693	     -4.07851713	     -1.73802084	    -62.61612604	     -1.10990651	      3.55463262	     32.39478448	      4.14629754	     -3.02433467	    -28.79591583	     12.42024640	     -2.86815664	     -0.13824906	     -1.20737449	      4.70955584
      2.43000000	     -9.70095907	      2.26532099	     -3.20801126	      0.22448149	      0.96424720	      0.21791852	     18.83809680	     -4.68993574	     -1.65361758	    -64.34196086	     -0.98596474	      3.33664908	     31.60271888	      4.63976038	     -3.13401541	    -28.44099650	     12.84093379	     -2.92463766	     -0.26227130	     -1.61086430	      4.37817636
      2.44000000	     -9.61695749	      2.56379696	     -3.16305267	      0.23277384	      0.96526020	      0.21684032	     20.19211763	     -5.19784299	     -1.56686905	    -65.81798405	     -0.58695207	      3.05532697	     30.80479388	      5.06390859	     -3.23243523	    -28.08268493	     13.26436201	     -3.01284433	     -0.40017976	     -1.93349982	      4.03269905
      2.45000000	     -9.52504428	      2.79614442	     -3.09235407	      0.24099570	      0.96631577	      0.21579352	     21.50035205	     -5.61454957	     -1.50332514	    -67.02619152	     -0.00603136	      2.74031880	     29.98600457	      5.43206660	     -3.29147981	    -27.69776329	     13.67291229	     -3.11088405	     -0.55119317	     -2.17644734	      3.64817246
      2.46000000	     -9.42618827	      2.96190624	     -2.99514970	      0.24914595	      0.96739823	      0.21477618	     22.75994587	     -5.94815395	     -1.47824419	    -67.96703672	      0.70260870	      2.39136153	     29.15587453	      5.74323440	     -3.30284569	    -27.30614763	     14.05905904	     -3.20854957	     -0.71511278	     -2.34187441	      3.24741463
      2.47000000	     -9.32174618	      3.07057939	     -2.86885975	      0.25719829	      0.96847800	      0.21378630	     23.97260453	     -6.20235771	     -1.48064162	    -68.64792925	      1.49067595	      1.96273287	     28.32572501	      6.00799726	     -3.25656453	    -26.92350060	     14.46017193	     -3.31491102	     -0.89554793	     -2.44263745	      2.84159796
      2.48000000	     -9.23137613	      3.11337264	     -2.70070619	      0.26520382	      0.96953446	      0.21282240	     25.13841105	     -6.37544747	     -1.53127989	    -69.05793610	      2.41691300	      1.63561128	     27.51787231	      6.20960604	     -3.18715671	    -26.55641697	     14.82045634	     -3.35793113	     -1.05952608	     -2.46660387	      2.38840380
      2.49000000	     -9.14533999	      3.12608855	     -2.51395161	      0.27313584	      0.97054125	      0.21190883	     26.26752948	     -6.49425357	     -1.59104449	    -69.22597805	      3.38870722	      1.28827117	     26.72503631	      6.37978312	     -3.08880615	    -26.20652792	     15.18512997	     -3.39843997	     -1.22227185	     -2.45905992	      1.93287038
      2.50000000	     -9.06695977	      3.11751373	     -2.31153056	      0.28104173	      0.97150565	      0.21104202	     27.35226739	     -6.58587637	     -1.68541318	    -69.14356547	      4.39747450	      0.91521055	     25.93772710	      6.52637513	     -2.96178177	    -25.85100428	     15.53553653	     -3.43888150	     -1.37331985	     -2.43135015	      1.48079062
      2.51000000	     -8.99861574	      3.09033547	     -2.10795122	      0.28892362	      0.97238775	      0.21021735	     28.39932199	     -6.64553513	     -1.78886441	    -68.82912890	      5.45538812	      0.63024467	     25.17415753	      6.64279243	     -2.84605306	    -25.52084012	     15.89050222	     -3.45997885	     -1.50670755	     -2.37625125	      1.04228034
      2.52000000	     -8.93246772	      3.06761451	     -1.89161217	      0.29678986	      0.97320120	      0.20945581	     29.39934768	     -6.70926246	     -1.92254889	    -68.29546439	      6.53537200	      0.38734917	     24.41212094	      6.75778796	     -2.72267045	    -25.18645708	     16.22772681	     -3.47676360	     -1.63506861	     -2.33839859	      0.61414444
